<?xml version="1.0" encoding="utf-8"?>
<!-- Generator: Adobe Illustrator 21.0.2, SVG Export Plug-In . SVG Version: 6.00 Build 0)  -->
<svg version="1.1" id="Layer_1" xmlns="http://www.w3.org/2000/svg" xmlns:xlink="http://www.w3.org/1999/xlink" x="0px" y="0px"
	 viewBox="0 0 99.3 18.4" style="enable-background:new 0 0 99.3 18.4;" xml:space="preserve">
<style type="text/css">
	.st0{fill:#FF4338;}
	.st1{fill:#363636;}
	.st2{fill:#262626;}
	.st3{fill:#E1DDDD;}
	.st4{fill:#3F3D3E;}
	.st5{fill:#FB8E00;}
	.st6{fill:#FFBF00;}
	.st7{fill:#FBA300;}
	.st8{fill:#FFFFFF;}
	.st9{fill:#E3DFDF;}
	.st10{fill:#EDEDED;}
	.st11{fill:#37384F;}
	.st12{fill:#D3D0D0;}
	.st13{font-family:'Oswald-Regular';}
	.st14{font-size:10px;}
	.st15{font-family:'Oswald-ExtraLight';}
	.st16{font-family:'Pacifico-Regular';}
</style>
<title>365 Flicks Logo</title>
<g id="Layer_2">
	<g id="Layer_1-2">
		<path d="M8.6,18.4c-2,0-4-0.6-5.7-1.6C1,15.7,0,14.5,0,13.3v-0.8c0-1.2,1-2.4,2.9-3.5C3.5,8.6,4,8.3,4.6,8.1
			C4,7.3,3.7,6.3,3.6,5.3V2.8c0-0.2,0.2-0.5,0.4-0.5l1.4-0.8C5.4,1.3,5.5,1.1,5.7,1C5.8,0.8,6,0.7,6.2,0.6c0.2-0.1,0.5-0.2,0.7-0.3
			c1.1-0.3,2.3-0.3,3.3,0c0.2,0.1,0.5,0.2,0.7,0.3c0.2,0.1,0.4,0.3,0.6,0.4c0.3,0.3,0.5,0.7,0.5,1.2v3.6l0.3-0.2
			c0.2-0.1,0.4-0.1,0.6,0c0.3,0.2,0.5,0.5,0.5,0.9v2.1c0.3,0.1,0.5,0.3,0.8,0.4c1.9,1.1,2.9,2.3,2.9,3.5v0.8c0,1.2-1,2.4-2.9,3.5
			C12.6,17.8,10.6,18.4,8.6,18.4z M5.6,8.1c0.1,0.2,0,0.4-0.2,0.5c0,0,0,0,0,0C4.6,8.9,4,9.2,3.3,9.6c-1.7,1-2.6,1.9-2.6,2.9v0.8
			c0,0.9,0.9,1.9,2.5,2.9c3.3,2,7.4,2,10.6,0c1.7-1,2.5-1.9,2.5-2.9v-0.8c0-0.9-0.9-1.9-2.5-2.9c-0.3-0.2-0.6-0.3-0.9-0.5
			c-0.1-0.1-0.2-0.2-0.2-0.3V6.5c0-0.1-0.1-0.2-0.1-0.2l-0.8,0.5c0.1,0,0.1,0.1,0.1,0.2l0,0l0,0l0,0c0,0.1,0,0.1,0.1,0.2
			c0,0.1,0,0.2,0,0.2v0.9c0,0.2-0.2,0.4-0.4,0.4s-0.4-0.2-0.4-0.4l0,0V7.3c0,0,0-0.1,0-0.1l0,0c-0.1-0.2,0-0.4,0.1-0.5
			c-0.1-0.1-0.2-0.2-0.2-0.3V3.5l0,0L11,3.8l-0.4,0.2c-0.1,0-0.1,0-0.2,0C10.4,4,10.3,4,10.3,4C9.5,4.3,8.6,4.4,7.8,4.2
			c-0.2,0-0.3-0.2-0.3-0.4c0,0,0,0,0-0.1c0-0.2,0.2-0.3,0.4-0.3c0,0,0,0,0,0C8.6,3.6,9.3,3.6,10,3.4c0.1,0,0.1,0,0.2,0
			c0,0,0.1-0.1,0.1-0.1l0.3-0.1L10.9,3l0,0L11,2.9c0,0,0-0.1,0-0.1l0,0c0.1-0.1,0.2-0.3,0.3-0.5V2.3V2.2c0-0.2-0.1-0.5-0.3-0.6
			c-0.1-0.1-0.3-0.2-0.4-0.3C10.4,1.1,10.2,1.1,10,1C9.1,0.7,8.1,0.7,7.2,1C7,1.1,6.8,1.1,6.6,1.2C6.5,1.3,6.3,1.4,6.2,1.6
			C6.1,1.7,6,1.8,5.9,1.9c0,0.1-0.1,0.2-0.3,0.2L4.9,2.6C4.9,2.7,5,2.8,5,2.9c0.1,0.2,0,0.4-0.2,0.5c-0.1,0-0.3,0-0.4-0.1v2
			c0,0.4,0.1,0.7,0.2,1c0.1-0.2,0.4-0.2,0.5-0.1c0.1,0,0.1,0.1,0.1,0.2c0.1,0.4,0.3,0.8,0.6,1.1c0.1,0.2,0.1,0.4-0.1,0.5
			C5.7,8.1,5.6,8.1,5.6,8.1L5.6,8.1z M6.4,3.8l0.1-0.1L6.4,3.8l0.1-0.1l0,0L6.4,3.8L6.4,3.8L6.4,3.8L6.4,3.8c0,0-0.1-0.1-0.1-0.1
			H6.2l0,0H6.2l0,0L6,3.7L6.4,3h0.1l0,0l0.1,0.1h0.1l0,0v0.1l0,0L6.7,3l0,0L6.7,3.2c0,0.2,0,0.3-0.2,0.4L6.4,3.8z"/>
		<path class="st0" d="M14.1,15.6c-3.4,2.1-7.6,2.1-11,0c-1.8-1.1-2.8-2.1-2.8-3.2v0.8c0,1.1,0.9,2.1,2.7,3.2c3.4,2.1,7.6,2.1,11,0
			c1.8-1,2.7-2.1,2.7-3.2v-0.8C16.9,13.5,15.9,14.6,14.1,15.6z"/>
		<path d="M8.6,18.1c-2,0-3.9-0.6-5.6-1.6c-1.8-1.1-2.8-2.2-2.8-3.3v-0.8c0-0.1,0-0.1,0.1-0.1s0.1,0,0.1,0.1c0,1,0.9,2.1,2.7,3.1
			c3.3,2.1,7.6,2.1,10.9,0c1.8-1,2.7-2.1,2.7-3.1c0-0.1,0-0.1,0.1-0.1c0.1,0,0.1,0,0.1,0.1v0.8c0,1.1-0.9,2.2-2.8,3.3
			C12.5,17.6,10.6,18.1,8.6,18.1z M0.5,13.3c0,1,0.9,2.1,2.7,3.1c3.3,2.1,7.6,2.1,10.9,0c1.8-1,2.7-2.1,2.7-3.1
			c-0.6,1-1.5,1.9-2.6,2.4c-3.4,2.1-7.7,2.1-11.1,0C2,15.2,1.1,14.3,0.5,13.3z"/>
		<path class="st0" d="M14.1,9.2c-3.4-2.1-7.6-2.1-11,0l0,0c-1.8,1.1-2.8,2.1-2.8,3.2s0.9,2.1,2.7,3.2c3.4,2.1,7.6,2.1,11,0
			c1.8-1,2.7-2.1,2.7-3.2S15.9,10.3,14.1,9.2z"/>
		<path d="M8.6,17.3c-2,0-3.9-0.6-5.6-1.6c-1.8-1.1-2.8-2.2-2.8-3.3S1.2,10.2,3,9.2c3.4-2.1,7.7-2.1,11.1,0c1.8,1.1,2.8,2.2,2.8,3.3
			s-0.9,2.2-2.8,3.3C12.5,16.7,10.6,17.3,8.6,17.3z M8.6,7.8c-1.9,0-3.8,0.6-5.5,1.5c-1.8,1-2.7,2.1-2.7,3.1s0.9,2.1,2.7,3.1
			c3.3,2.1,7.6,2.1,10.9,0c1.8-1,2.7-2.1,2.7-3.1s-0.9-2.1-2.7-3.1C12.4,8.3,10.5,7.8,8.6,7.8L8.6,7.8z"/>
		<path class="st1" d="M8.5,12.9c-1.1,0-2-0.5-2-1.2v0.9c0,0.6,0.9,1.2,2,1.2s2-0.5,2-1.2v-0.9C10.5,12.4,9.6,12.9,8.5,12.9z"/>
		<path d="M8.5,13.9c-1.2,0-2.1-0.6-2.1-1.3v-0.9c0-0.1,0-0.1,0.1-0.1c0.1,0,0.1,0,0.1,0.1c0,0.6,0.9,1.1,2,1.1s1.9-0.5,1.9-1.1
			c0-0.1,0-0.1,0.1-0.1c0.1,0,0.1,0,0.1,0.1v0.9C10.6,13.4,9.7,13.9,8.5,13.9z M6.5,12.3v0.4c0,0.6,0.9,1.1,1.9,1.1s1.9-0.5,1.9-1.1
			v-0.4c-0.5,0.5-1.2,0.8-1.9,0.7C7.8,13.1,7.1,12.8,6.5,12.3z"/>
		<path class="st2" d="M8.5,12.9c-1.1,0-2-0.5-2-1.2l0,0c0-0.6,0.9-1.2,2-1.2s2,0.5,2,1.2l0,0C10.5,12.4,9.6,12.9,8.5,12.9z"/>
		<path d="M8.5,13c-1.2,0-2.1-0.6-2.1-1.3s1-1.3,2.1-1.3s2.1,0.6,2.1,1.3S9.7,13,8.5,13z M8.5,10.6c-1.1,0-1.9,0.5-1.9,1.1
			s0.9,1.1,1.9,1.1s1.9-0.5,1.9-1.1S9.6,10.7,8.5,10.6L8.5,10.6z"/>
		<path class="st3" d="M8.5,9C8.1,9,7.8,8.8,7.8,8.6v3.1c0,0.2,0.3,0.4,0.7,0.4s0.7-0.2,0.7-0.4V8.6C9.1,8.8,8.9,9,8.5,9z"/>
		<path d="M8.5,12.2c-0.4,0-0.8-0.2-0.8-0.5V8.6c0-0.1,0-0.1,0.1-0.1c0.1,0,0.1,0,0.1,0.1c0,0.1,0.2,0.3,0.6,0.3s0.6-0.1,0.6-0.3
			c0-0.1,0-0.1,0.1-0.1c0.1,0,0.1,0,0.1,0.1v3.1C9.2,12,8.9,12.2,8.5,12.2z M7.9,8.9v2.8c0,0.1,0.2,0.3,0.6,0.3s0.6-0.1,0.6-0.3V8.9
			C8.7,9.2,8.3,9.2,7.9,8.9z"/>
		<path class="st4" d="M8.2,8.1C7,7.4,6.2,6.2,6.1,4.8V2.4c0-0.2-0.1-0.5-0.3-0.6c-0.1,0-0.2,0-0.2,0L4.1,2.6c0.1,0,0.2,0,0.2,0
			c0.2,0.1,0.3,0.3,0.3,0.6v2.5C4.8,7,5.6,8.3,6.8,9L7,9.1l1.4-0.8L8.2,8.1z"/>
		<path d="M7,9.2L7,9.2L6.8,9c-1.2-0.7-2-2-2.1-3.3V3.2c0-0.2-0.1-0.4-0.3-0.5c0,0-0.1,0-0.1,0l0,0c0,0-0.1,0-0.1,0c0,0,0-0.1,0-0.1
			l0,0l1.4-0.8c0.1-0.1,0.2-0.1,0.3,0C6,1.9,6.2,2.1,6.2,2.4v2.5c0.1,1.3,0.9,2.5,2,3.2l0.2,0.1c0,0,0.1,0.1,0,0.1c0,0,0,0,0,0
			L7,9.2L7,9.2z M4.4,2.5c0.2,0.1,0.4,0.4,0.4,0.7v2.5c0.1,1.3,0.9,2.5,2,3.2L7,9l1.2-0.7L8.1,8.2c-1.2-0.7-2-2-2.1-3.4V2.4
			C6,2.2,5.9,2,5.7,1.9c0,0-0.1,0-0.1,0L4.4,2.5z"/>
		<path class="st2" d="M6.8,9c-1.2-0.7-2-1.9-2.1-3.3V3.2c0-0.2-0.1-0.5-0.3-0.6C4.3,2.5,4.2,2.5,4.1,2.5S3.9,2.7,4,2.8l0,0v2.5
			c0.2,1.8,1.2,3.5,2.8,4.4L7,9.9V9.1L6.8,9z"/>
		<path d="M7,10L7,10L6.8,9.9C5.2,8.9,4.1,7.2,4,5.3V2.8c0-0.2,0.1-0.3,0.2-0.3c0.1,0,0.2,0,0.2,0.1c0.2,0.1,0.4,0.4,0.4,0.7v2.5
			c0.1,1.3,0.9,2.5,2,3.2L7.1,9c0,0,0,0.1,0,0.1v0.8C7.1,9.9,7.1,9.9,7,10L7,10z M4.2,2.7L4.2,2.7c0,0-0.1,0.1-0.1,0.1v2.5
			c0.2,1.8,1.1,3.4,2.7,4.4l0.1,0.1V9.1L6.8,9c-1.2-0.7-2-2-2.1-3.3V3.2c0-0.2-0.1-0.4-0.3-0.5L4.2,2.7z"/>
		<polygon class="st5" points="8.8,9.9 8.5,10.1 8.5,10.3 8.5,11 8.5,11.3 8.8,11.1 10.5,10.1 10.5,9.9 10.5,9.1 10.5,8.9 		"/>
		<path d="M8.5,11.4L8.5,11.4C8.5,11.3,8.5,11.3,8.5,11.4v-1.3c0,0,0-0.1,0-0.1l2-1.1c0,0,0.1,0,0.1,0c0,0,0,0,0,0.1v1.2
			c0,0,0,0.1,0,0.1l-2,1.1L8.5,11.4z M8.6,10.1v1l1.8-1v-1L8.6,10.1z"/>
		<polygon class="st6" points="8.7,7.9 7,8.9 6.8,9 8.5,10.1 8.8,9.9 10.5,8.9 		"/>
		<path d="M8.5,10.1L8.5,10.1l-1.8-1c0,0-0.1-0.1-0.1-0.1c0,0,0,0,0,0l2-1.1c0,0,0.1,0,0.1,0l1.8,1c0,0,0.1,0.1,0,0.1c0,0,0,0,0,0
			L8.5,10.1L8.5,10.1z M6.9,9l1.6,0.9l1.8-1L8.7,8L6.9,9z"/>
		<polygon class="st7" points="6.8,9 6.8,9.3 6.8,10 6.8,10.2 7.2,10.5 8,11 8.5,11.3 8.5,11 8.5,10.3 8.5,10.1 		"/>
		<path d="M8.5,11.4L8.5,11.4l-1.8-1c0,0,0-0.1,0-0.1V9c0,0,0,0,0.1,0l1.8,1c0,0,0,0.1,0,0.1L8.5,11.4C8.6,11.3,8.6,11.3,8.5,11.4
			L8.5,11.4z M6.8,10.2l1.6,0.9v-1L6.8,9.2V10.2z"/>
		<path class="st8" d="M6.5,3.8c0.1-0.1,0.2-0.2,0.3-0.2L5.6,3C5.5,3,5.4,3,5.3,3.2s-0.1,0.3,0,0.3l1.1,0.7C6.4,4.1,6.4,3.9,6.5,3.8
			z"/>
		<path d="M6.5,4.2L6.5,4.2L5.3,3.5c-0.1-0.1-0.1-0.3,0-0.5s0.3-0.3,0.4-0.2l1.1,0.7c0,0,0.1,0,0.1,0.1c0,0.1,0,0.1-0.1,0.1l0,0
			c-0.1,0-0.1,0.1-0.2,0.1c0,0,0,0.1,0,0.2l0,0l0,0c0,0,0.1,0.1,0.1,0.1c0,0,0,0-0.1,0.1L6.5,4.2z M5.6,3C5.5,3,5.4,3.1,5.4,3.1
			c-0.1,0.1,0,0.2,0,0.2l0.9,0.5c0-0.1,0.1-0.2,0.2-0.3L5.6,3z"/>
		<path class="st9" d="M11.3,3.1c-0.1,0.1-0.3,0.3-0.5,0.4c-0.2,0.1-0.4,0.2-0.6,0.3C9.7,3.9,9.1,4,8.6,4c-0.5,0-1-0.1-1.6-0.2
			C6.8,3.7,6.6,3.6,6.4,3.5C6.2,3.4,6.1,3.3,5.9,3.1C5.7,2.9,5.5,2.6,5.5,2.2v1.5l0,0v0.8l0,0v0.8l0,0v2.4c0,0.3,0.2,0.7,0.4,0.9
			C6.1,8.7,6.2,8.9,6.4,9c0.2,0.1,0.4,0.2,0.7,0.3c1,0.3,2.1,0.3,3.1,0c0.2-0.1,0.4-0.2,0.6-0.3c0.2-0.1,0.3-0.2,0.5-0.4
			c0.3-0.2,0.4-0.6,0.4-0.9V6.1l0,0v-4C11.7,2.5,11.6,2.8,11.3,3.1z"/>
		<path d="M8.6,9.6C8.1,9.6,7.5,9.5,7,9.3C6.8,9.2,6.6,9.1,6.4,9C6.2,8.9,6,8.8,5.9,8.6C5.6,8.4,5.4,8,5.4,7.6V5.3l0,0V3.7l0,0V2.2
			c0-0.1,0-0.1,0.1-0.1c0.1,0,0.1,0,0.1,0.1C5.6,2.5,5.8,2.8,6,3c0.1,0.1,0.3,0.3,0.5,0.4c0.2,0.1,0.4,0.2,0.6,0.3c1,0.3,2,0.3,3,0
			c0.2-0.1,0.4-0.2,0.6-0.3c0.2-0.1,0.4-0.2,0.5-0.4c0.2-0.2,0.4-0.5,0.4-0.8c0-0.1,0-0.1,0.1-0.1c0.1,0,0.1,0,0.1,0.1v5.5
			c0,0.4-0.2,0.7-0.4,1C11.2,8.8,11,9,10.9,9.1c-0.2,0.1-0.4,0.2-0.7,0.3C9.7,9.5,9.1,9.6,8.6,9.6z M5.6,5.3v2.4
			C5.6,8,5.8,8.3,6,8.5c0.1,0.1,0.3,0.3,0.5,0.4C6.7,9,6.9,9.1,7.1,9.2c1,0.3,2,0.3,3,0c0.2-0.1,0.4-0.2,0.6-0.3
			c0.2-0.1,0.3-0.2,0.5-0.4c0.2-0.2,0.4-0.5,0.4-0.8V2.8c-0.1,0.1-0.2,0.2-0.3,0.3c-0.2,0.2-0.3,0.3-0.5,0.4
			c-0.2,0.1-0.4,0.2-0.7,0.3C9.1,4.1,8,4.1,7,3.8C6.8,3.7,6.5,3.6,6.3,3.5C6.2,3.4,6,3.3,5.8,3.1C5.7,3,5.7,2.9,5.6,2.8L5.6,5.3
			L5.6,5.3z"/>
		<path class="st10" d="M10.2,3.7c0.2-0.1,0.4-0.2,0.6-0.3c0.2-0.1,0.3-0.2,0.5-0.4c0.3-0.2,0.4-0.6,0.4-0.9c0-0.3-0.2-0.7-0.4-0.9
			C11.2,1.1,11,1,10.8,0.9c-0.2-0.1-0.4-0.2-0.6-0.3c-1-0.3-2.1-0.3-3.1,0C6.8,0.7,6.6,0.8,6.4,0.9C6.2,1,6.1,1.1,5.9,1.3
			C5.7,1.5,5.5,1.8,5.5,2.2c0,0.3,0.2,0.7,0.4,0.9c0.1,0.1,0.3,0.3,0.5,0.4C6.6,3.6,6.8,3.6,7,3.7C7.6,3.9,8.1,4,8.6,4
			C9.1,4,9.7,3.9,10.2,3.7z"/>
		<path d="M8.6,4.1C8.1,4.1,7.5,4,7,3.8C6.8,3.7,6.5,3.6,6.3,3.5C6.2,3.4,6,3.3,5.8,3.1c-0.3-0.3-0.4-0.6-0.4-1c0-0.4,0.2-0.7,0.4-1
			C6,1,6.2,0.9,6.4,0.8C6.6,0.7,6.8,0.6,7,0.5c1-0.3,2.1-0.3,3.2,0c0.2,0.1,0.5,0.2,0.7,0.3C11,0.9,11.2,1,11.3,1.2
			c0.3,0.3,0.4,0.6,0.4,1c0,0.4-0.2,0.7-0.4,1c-0.2,0.2-0.3,0.3-0.5,0.4c-0.2,0.1-0.4,0.2-0.7,0.3C9.7,4,9.1,4.1,8.6,4.1z M8.6,0.5
			c-0.5,0-1,0.1-1.5,0.2C6.9,0.8,6.7,0.9,6.5,1C6.3,1.1,6.1,1.2,6,1.3C5.8,1.5,5.6,1.8,5.6,2.2C5.6,2.5,5.8,2.8,6,3
			c0.1,0.1,0.3,0.3,0.5,0.4c0.2,0.1,0.4,0.2,0.6,0.3c1,0.3,2,0.3,3,0c0.2-0.1,0.4-0.2,0.6-0.3c0.2-0.1,0.4-0.2,0.5-0.4
			c0.2-0.2,0.4-0.5,0.4-0.8c0-0.3-0.2-0.6-0.4-0.8c-0.1-0.1-0.3-0.2-0.5-0.3c-0.2-0.1-0.4-0.2-0.6-0.3C9.6,0.5,9.1,0.5,8.6,0.5z"/>
		<path class="st11" d="M5.5,6.9V6.1c0,0.3,0.2,0.7,0.4,0.9v0.8C5.7,7.6,5.5,7.2,5.5,6.9z"/>
		<path d="M5.9,7.9C5.9,7.9,5.9,7.9,5.9,7.9c-0.4-0.3-0.5-0.6-0.5-1V6.1c0-0.1,0-0.1,0.1-0.1c0.1,0,0.1,0,0.1,0.1l0,0
			c0,0.3,0.2,0.6,0.4,0.8C6,7,6,7,6,7L5.9,7.9C6,7.8,6,7.9,5.9,7.9L5.9,7.9z M5.6,6.7v0.2c0,0.2,0.1,0.5,0.2,0.7V7
			C5.7,6.9,5.7,6.8,5.6,6.7z"/>
		<path class="st11" d="M11.3,7c-0.1,0.1-0.3,0.3-0.5,0.4c-0.2,0.1-0.4,0.2-0.6,0.3C9.1,8,8.1,8,7.1,7.7v0.8c1,0.3,2.1,0.3,3.1,0
			c0.2-0.1,0.4-0.2,0.6-0.3c0.2-0.1,0.3-0.2,0.5-0.4c0.3-0.2,0.4-0.6,0.4-0.9V6.1C11.7,6.5,11.6,6.8,11.3,7z"/>
		<path d="M8.6,8.8C8.1,8.8,7.5,8.7,7,8.5c0,0,0-0.1,0-0.1V7.7c0,0,0-0.1,0.1-0.1c0,0,0,0,0,0c1,0.3,2,0.3,3,0
			c0.2-0.1,0.4-0.2,0.6-0.3c0.2-0.1,0.3-0.2,0.5-0.4c0.2-0.2,0.4-0.5,0.4-0.8c0-0.1,0-0.1,0.1-0.1c0.1,0,0.1,0,0.1,0.1v0.8
			c0,0.4-0.2,0.7-0.4,1c-0.2,0.2-0.3,0.3-0.5,0.4c-0.2,0.1-0.4,0.2-0.7,0.3C9.7,8.7,9.1,8.8,8.6,8.8z M7.1,8.4c1,0.3,2,0.3,3,0
			c0.2-0.1,0.4-0.2,0.6-0.3C11,8,11.1,7.9,11.2,7.7c0.2-0.2,0.4-0.5,0.4-0.8V6.7c-0.1,0.1-0.2,0.2-0.3,0.3c-0.2,0.2-0.3,0.3-0.5,0.4
			c-0.2,0.1-0.4,0.2-0.7,0.3c-1,0.3-2,0.3-3,0L7.1,8.4z"/>
		<path class="st11" d="M5.5,5.3V4.5c0,0.3,0.2,0.7,0.4,0.9v0.8C5.7,6,5.5,5.7,5.5,5.3z"/>
		<path d="M5.9,6.3C5.9,6.3,5.9,6.3,5.9,6.3c-0.4-0.3-0.5-0.6-0.5-1V4.5c0-0.1,0-0.1,0.1-0.1c0.1,0,0.1,0,0.1,0.1
			c0,0.3,0.2,0.6,0.4,0.8c0,0,0,0,0,0.1L5.9,6.3C6,6.2,6,6.3,5.9,6.3L5.9,6.3z M5.6,5.2v0.2c0,0.2,0.1,0.5,0.2,0.7V5.5
			C5.7,5.4,5.7,5.3,5.6,5.2z"/>
		<path class="st11" d="M11.3,5.4c-0.1,0.1-0.3,0.3-0.5,0.4c-0.2,0.1-0.4,0.2-0.6,0.3c-1,0.3-2.1,0.3-3.1,0v0.8c1,0.3,2.1,0.3,3.1,0
			c0.2-0.1,0.4-0.2,0.6-0.3c0.2-0.1,0.3-0.2,0.5-0.4c0.3-0.2,0.4-0.6,0.4-0.9V4.5C11.7,4.9,11.6,5.2,11.3,5.4z"/>
		<path d="M8.6,7.2C8.1,7.2,7.5,7.2,7,7c0,0,0-0.1,0-0.1c0,0,0,0,0,0V6.1C7,6.1,7,6,7,6c0,0,0.1,0,0.1,0c1,0.3,2,0.3,3,0
			c0.2-0.1,0.4-0.2,0.6-0.3c0.2-0.1,0.3-0.2,0.5-0.4c0.2-0.2,0.4-0.5,0.4-0.8c0-0.1,0-0.1,0.1-0.1c0.1,0,0.1,0,0.1,0.1v0.8
			c0,0.4-0.2,0.7-0.4,1c-0.2,0.2-0.3,0.3-0.5,0.4c-0.2,0.1-0.4,0.2-0.7,0.3C9.6,7.1,9.1,7.2,8.6,7.2z M7.2,6.8c1,0.3,2,0.3,3,0
			c0.2-0.1,0.4-0.2,0.6-0.3c0.2-0.1,0.3-0.2,0.5-0.4c0.2-0.2,0.4-0.5,0.4-0.8V5.2c-0.1,0.1-0.2,0.2-0.3,0.3
			c-0.2,0.2-0.3,0.3-0.5,0.4c-0.2,0.1-0.4,0.2-0.7,0.3c-1,0.3-2,0.3-3,0L7.2,6.8z"/>
		<path class="st11" d="M5.5,3.7V3c0,0.3,0.2,0.7,0.4,0.9v0.8C5.7,4.4,5.5,4.1,5.5,3.7z"/>
		<path d="M5.9,4.7C5.9,4.7,5.9,4.7,5.9,4.7c-0.4-0.3-0.5-0.6-0.5-1V3c0-0.1,0-0.1,0.1-0.1s0.1,0,0.1,0.1c0,0.3,0.2,0.6,0.4,0.8
			c0,0,0,0,0,0.1L5.9,4.7C6,4.7,6,4.7,5.9,4.7L5.9,4.7z M5.6,3.6v0.2c0,0.2,0.1,0.5,0.2,0.6V3.9C5.7,3.8,5.7,3.7,5.6,3.6z"/>
		<path class="st11" d="M11.3,3.8C11.2,4,11,4.1,10.8,4.2c-0.2,0.1-0.4,0.2-0.6,0.3c-0.5,0.2-1,0.2-1.6,0.2c-0.5,0-1-0.1-1.6-0.2
			v0.8c1,0.3,2.1,0.3,3.1,0c0.2-0.1,0.4-0.2,0.6-0.3c0.2-0.1,0.3-0.2,0.5-0.4c0.3-0.2,0.4-0.6,0.4-0.9V3C11.7,3.3,11.5,3.6,11.3,3.8
			z"/>
		<path d="M8.6,5.6C8.1,5.6,7.5,5.5,7,5.4c0,0,0-0.1,0-0.1V4.5c0,0,0-0.1,0-0.1c0,0,0.1,0,0.1,0c1,0.3,2,0.3,3,0
			c0.2-0.1,0.4-0.2,0.6-0.3C10.9,4,11,3.9,11.2,3.8c0.2-0.2,0.4-0.5,0.4-0.8c0-0.1,0-0.1,0.1-0.1c0.1,0,0.1,0,0.1,0.1v0.8
			c0,0.4-0.2,0.7-0.4,1c-0.2,0.2-0.3,0.3-0.5,0.4c-0.2,0.1-0.4,0.2-0.7,0.3C9.7,5.6,9.1,5.7,8.6,5.6z M7.1,5.2c1,0.3,2,0.3,3,0
			c0.2-0.1,0.4-0.2,0.6-0.3c0.2-0.1,0.3-0.2,0.5-0.4c0.2-0.2,0.4-0.5,0.4-0.8V3.6c-0.1,0.1-0.2,0.2-0.3,0.3
			c-0.2,0.2-0.3,0.3-0.5,0.4c-0.2,0.1-0.4,0.2-0.7,0.3c-1,0.3-2,0.3-3,0L7.1,5.2z"/>
		<path class="st12" d="M11.8,6.8C11.8,6.7,12,6.6,12,6.7L10.9,6c-0.1,0-0.2,0-0.3,0.2s-0.1,0.3,0,0.3l1.1,0.7
			C11.7,7.1,11.7,6.9,11.8,6.8z"/>
		<path d="M11.8,7.2L11.8,7.2l-1.1-0.7c-0.1,0-0.1-0.1-0.1-0.2c0-0.1,0-0.2,0.1-0.2C10.7,6,10.9,5.9,11,5.9l1.1,0.7
			c0,0,0.1,0,0.1,0.1c0,0,0,0.1-0.1,0.1c0,0,0,0,0,0l0,0c-0.1,0-0.1,0.1-0.1,0.1c-0.1,0.1,0,0.2,0,0.2l0,0c0,0,0.1,0.1,0.1,0.1
			c0,0,0,0-0.1,0.1L11.8,7.2z M10.9,6.1c-0.1,0-0.1,0.1-0.1,0.1c0,0,0,0.1,0,0.2l0,0l0.9,0.5c0-0.1,0.1-0.2,0.2-0.3L10.9,6.1
			L10.9,6.1z"/>
		<path class="st4" d="M10.4,9.4l-0.2-0.1l-1.4,0.8L9,10.2c0.5,0.3,1.1,0.4,1.6,0.2L12,9.6C11.5,9.9,10.9,9.8,10.4,9.4z"/>
		<path d="M10.1,10.7c-0.4,0-0.7-0.1-1.1-0.3l-0.2-0.1c0,0-0.1-0.1,0-0.1c0,0,0,0,0,0l1.4-0.8c0,0,0.1,0,0.1,0l0.2,0.1
			c0.4,0.3,1,0.4,1.5,0.2l0,0c0,0,0.1,0,0.1,0s0,0.1,0,0.1l0,0l-1.4,0.8C10.5,10.6,10.3,10.7,10.1,10.7z M9,10.1L9,10.1
			c0.5,0.4,1.1,0.4,1.6,0.2l0.9-0.5c-0.4,0-0.7-0.1-1-0.3l-0.2-0.1L9,10.1z"/>
		<path class="st4" d="M12.9,5.9c-0.1,0-0.2,0-0.2,0l-1.4,0.8c0.1,0,0.2,0,0.2,0c0.2,0.1,0.3,0.3,0.3,0.6v2.5
			c0.1,0.6-0.2,1.2-0.7,1.5l1.4-0.8c0.5-0.3,0.8-0.9,0.7-1.5V6.5C13.2,6.2,13,6,12.9,5.9z"/>
		<path d="M11.1,11.3c0,0-0.1-0.1-0.1-0.1c0,0,0,0,0.1-0.1l0,0c0.5-0.3,0.7-0.9,0.7-1.4V7.3c0-0.2-0.1-0.4-0.3-0.5c0,0-0.1,0-0.1,0
			l0,0c0,0-0.1,0-0.1,0s0-0.1,0-0.1l0,0l1.4-0.8c0.1-0.1,0.2-0.1,0.3,0c0.2,0.1,0.4,0.4,0.4,0.7v2.5c0.1,0.6-0.2,1.2-0.8,1.6
			L11.1,11.3L11.1,11.3L11.1,11.3z M11.5,6.6c0.2,0.1,0.4,0.4,0.4,0.7v2.5c0,0.4-0.1,0.7-0.3,1.1l0.8-0.5c0.5-0.3,0.7-0.9,0.7-1.4
			V6.5c0-0.2-0.1-0.4-0.3-0.5c0,0-0.1,0-0.1,0L11.5,6.6z"/>
		<path class="st2" d="M11.4,6.7c-0.1-0.1-0.2-0.1-0.3,0c0,0-0.1,0.1,0,0.2v2.5c0,0.4-0.2,0.8-0.5,1.1c-0.5,0.2-1.1,0.2-1.6-0.2
			l-0.2-0.1v0.8L9,11c0.6,0.4,1.4,0.5,2.1,0.2c0.5-0.3,0.8-0.9,0.7-1.5V7.3C11.8,7,11.6,6.8,11.4,6.7z"/>
		<path d="M10.4,11.5L10.4,11.5c-0.5,0-0.9-0.2-1.4-0.4L8.7,11c0,0,0-0.1,0-0.1v-0.8c0,0-0.1-0.1,0-0.1s0.1-0.1,0.1,0l0,0l0.2,0.1
			c0.4,0.3,1,0.4,1.5,0.2c0.3-0.2,0.5-0.6,0.5-1V6.9c0-0.2,0.1-0.3,0.2-0.3c0.1,0,0.2,0,0.2,0.1c0.2,0.1,0.4,0.4,0.4,0.7v2.5
			c0.1,0.6-0.2,1.2-0.8,1.6C10.9,11.5,10.6,11.5,10.4,11.5z M8.9,10.8l0.2,0.1c0.4,0.2,0.8,0.4,1.3,0.4l0,0c0.2,0,0.5-0.1,0.7-0.2
			c0.5-0.3,0.7-0.9,0.7-1.4V7.3c0-0.2-0.1-0.4-0.3-0.5c0,0-0.1,0-0.1,0c0,0-0.1,0.1-0.1,0.1v2.4c0,0.5-0.2,0.9-0.6,1.1
			c-0.5,0.2-1.2,0.2-1.6-0.2l-0.1-0.1L8.9,10.8z"/>
		<path class="st6" d="M12.8,6.9C13,7,13.1,7.3,12.9,7.5c-0.1,0.2-0.4,0.3-0.7,0.2l0,0c-0.1-0.1-0.1-0.3,0-0.6S12.6,6.8,12.8,6.9z"
			/>
		<path d="M12.5,7.9c-0.1,0-0.2,0-0.3-0.1c-0.1-0.1-0.2-0.2-0.1-0.3c0-0.1,0-0.3,0.1-0.4c0.2-0.3,0.4-0.4,0.6-0.3
			c0.3,0.2,0.4,0.5,0.2,0.8C12.9,7.8,12.7,7.9,12.5,7.9z M12.7,6.9c-0.1,0-0.3,0.1-0.3,0.3c-0.1,0.1-0.1,0.2-0.1,0.3
			c0,0.1,0,0.1,0.1,0.2c0.2,0.1,0.4,0,0.6-0.2C13,7.3,12.9,7.1,12.7,6.9C12.7,6.9,12.7,6.9,12.7,6.9L12.7,6.9z"/>
		<text transform="matrix(1 0 0 1 19.76 13.65)" class="st0 st13 st14">365</text>
		<text transform="matrix(1 0 0 1 34.08 13.65)" class="st0 st15 st14">FLICKS</text>
		<text transform="matrix(1 0 0 1 60.61 13.73)" class="st0 st16 st14">pod</text>
		<text transform="matrix(1 0 0 1 75.08 13.73)" class="st0 st16 st14">c</text>
		<text transform="matrix(1 0 0 1 78.66 13.73)" class="st0 st16 st14">ast</text>
	</g>
</g>
</svg>
